<?xml version="1.0" encoding="UTF-8"?>
<?xml-stylesheet type="text/css" href="./stylesheet.css"?>
<svg xmlns="http://www.w3.org/2000/svg" xmlns:xlink="http://www.w3.org/1999/xlink" version="1.1"
	width="1280" height="720">

<defs>
	<desc>	3:2	3 * 570/2 = 855 </desc>
	<g id="backgroundA" class="background">
		<path fill-rule="nonzero" stroke="none" d="
			M0,0  h1280 v720 h-1280 z
			M212.5,50 v570 h855 v-570 z"/>

		<use xlink:href="#logos"/>

		<path class="frames" fill="none" d="
			M212.5,50 v570 h855 v-570 z"/>
	</g>

	<g id="backgroundB" class="background">
		<path fill-rule="nonzero" stroke="none" d="
			M0,0  h1280 v720 h-1280 z
			M212.5,50 v570 h380 v-570 z
			M687.5,50 v570 h380 v-570 z"/>

		<use xlink:href="#logos"/>

		<path class="frames" fill="none" d="
			M212.5,50 v570 h380 v-570 z
			M687.5,50 v570 h380 v-570 z"/>
	</g>

	<g id="logos" stroke="none">
		<path id="nameBackgroundLeft" stroke="none"
			d="M212.5,600 v-40 l-212.5,7.42066352 v40 z"/>
		<text transform="translate(106.25 585) rotate(-2)"
			alignment-baseline="middle" font-size="36">
			Lutz Jäkel</text>
		<path id="nameBackgroundRight" stroke="none"
			d="M1067.5,70 v40 l212.5,7.42066352 v-40 z"/>
		<text transform="translate(1173.75 95) rotate(2)"
			alignment-baseline="middle" font-size="36">
			Markus Mauthe</text>
		<rect id="logoBackground" transform="translate(640 672)"
			x="-170" y="-32.5" stroke="none"
			width="340" height="65"/>
		<text transform="translate(640 672.5)"
			alignment-baseline="middle" font-size="72">
			buntdenker.de</text>
	</g>

	<image id="lutz"
		x="-90" y="-150"
		href="https://static.wixstatic.com/media/b8486a_56df73b6eede4d99b24f7ca93b4f6cfb~mv2.png"
		height="300"/>
	<image id="markus"
		x="-90" y="-150"
		href="https://static.wixstatic.com/media/b8486a_8802ee4cc1c845eea7d8574535c554aa~mv2.png"
		height="300"/>
	<rect id="cams" class="frames"
		x="-110" y="-165"
		width="220" height="330"/>

	<g id="camsSmall">
		<g transform="translate(130 360) rotate(-2)">
			<use xlink:href="#cams"/>
			<use xlink:href="#lutz"/>
		</g>
		<g transform="translate(1150 315) rotate(2)">
			<use xlink:href="#cams"/>
			<use xlink:href="#markus"/>
		</g>
	</g>


	<image id="buntdenker"
		x="-150" y="-150"
		href="https://static.wixstatic.com/media/b8486a_9193e57831044be08b3803d9ddbf5227~mv2.png"
		height="300"/>
	<g id="start">
		<use xlink:href="#backgroundA"/>
		<use xlink:href="#camsSmall"/>
		<use xlink:href="#buntdenker" transform="translate(850 430)"/>
		<use xlink:href="#buntdenker" transform="translate(430 430) scale(-1,1)" opacity="0.5"/>
	</g>
</defs>
</svg>
