<?xml version="1.0" encoding="utf-8"?>
<!-- Generator: Adobe Illustrator 16.0.3, SVG Export Plug-In . SVG Version: 6.00 Build 0)  -->
<!DOCTYPE svg PUBLIC "-//W3C//DTD SVG 1.1//EN" "http://www.w3.org/Graphics/SVG/1.1/DTD/svg11.dtd">
<svg version="1.1" id="Ebene_1" xmlns="http://www.w3.org/2000/svg" xmlns:xlink="http://www.w3.org/1999/xlink" x="0px" y="0px"
	 width="211px" height="30px" viewBox="0 0 211 30" enable-background="new 0 0 211 30" xml:space="preserve">
<g>
	<path fill="#0058A0" d="M0.839,24.308c1.36,0.736,3.259,1.303,5.441,1.303c1.672,0,3.259-0.339,3.259-1.927
		c0-3.685-9.353-1.36-9.353-8.56c0-4.761,4.648-6.065,8.616-6.065c1.898,0,3.769,0.284,5.101,0.737l-0.34,4.082
		c-1.36-0.624-2.891-0.907-4.393-0.907c-1.332,0-3.542,0.113-3.542,1.842c0,3.203,9.352,1.049,9.352,8.19
		c0,5.13-4.308,6.52-8.7,6.52c-1.842,0-4.138-0.283-5.896-0.851L0.839,24.308L0.839,24.308z"/>
	<path fill="#999999" d="M29.505,29.104c0,0,7.036-6.141,8.752-13.197c1.482-6.107-2.96-14.969-2.96-14.969s4.125-2.19,10.014,3.479
		c6.019,5.79,16.287,24.688,16.287,24.688H29.505L29.505,29.104z"/>
	<polygon fill="#0058A0" points="16.898,9.323 22.17,9.323 22.17,16.89 28.404,16.89 28.404,9.323 33.676,9.323 33.676,29.104 
		28.404,29.104 28.404,20.631 22.17,20.631 22.17,29.104 16.898,29.104 16.898,9.323 	"/>
	<path fill="#0058A0" d="M58.01,13.063h1.389c2.013,0,3.855,0.34,3.855,2.183c0,2.239-2.154,2.296-3.855,2.296H58.01V13.063
		L58.01,13.063z M52.739,29.104h5.271v-7.821h1.105c1.956,0,2.636,0.85,3.713,4.251l1.134,3.57h5.498l-1.927-5.384
		c-0.992-2.41-1.105-3.912-2.806-4.365v-0.057c2.551-0.596,3.797-2.353,3.797-4.988c0-3.4-2.862-4.988-6.376-4.988h-9.409V29.104
		L52.739,29.104z"/>
	<polygon fill="#0058A0" points="70.663,9.323 75.935,9.323 75.935,17.4 75.991,17.4 81.943,9.323 88.292,9.323 80.979,18.533 
		88.858,29.104 82.141,29.104 75.991,20.121 75.935,20.121 75.935,29.104 70.663,29.104 70.663,9.323 	"/>
	<path fill="#999999" d="M98.696,13.063h1.559c1.417,0,2.721,0.397,2.721,2.296c0,2.353-1.899,3.089-3.996,3.089h-1.417
		L98.696,13.063L98.696,13.063z M90.023,29.104h5.271l1.474-6.914h2.692c4.761,0,8.786-2.495,8.786-7.427
		c0-4.987-4.365-5.441-8.701-5.441h-5.271L90.023,29.104L90.023,29.104z"/>
	<path fill="#999999" d="M115.177,13.203h2.522c1.587,0.028,2.438,0.623,2.438,2.04c0,1.871-1.785,2.438-4.081,2.438h-1.786
		L115.177,13.203L115.177,13.203z M106.617,29.244h5.3l1.588-7.822h0.566c2.381,0,2.552,0.198,3.062,2.778l1.021,5.044h5.271
		l-1.416-6.094c-0.283-1.274-0.794-3.372-2.353-3.515V19.58c3.032-0.369,5.753-1.588,5.753-5.073c0-4.903-4.534-5.016-8.304-5.045
		h-6.32L106.617,29.244L106.617,29.244z"/>
	<path fill="#999999" d="M140.998,17.562c0,3.316-1.7,8.049-5.781,8.049c-2.749,0-3.685-2.068-3.685-4.563
		c0-3.345,1.7-8.077,5.781-8.077C140.063,12.971,140.998,15.067,140.998,17.562L140.998,17.562z M146.439,17.137
		c0-4.081-2.353-8.078-8.785-8.078c-7.625,0-11.564,4.903-11.564,12.414c0,4.053,2.353,8.05,8.786,8.05
		C142.5,29.522,146.439,24.619,146.439,17.137L146.439,17.137z"/>
	<path fill="#999999" d="M157.062,21.416c-0.765,3.515-1.218,6.32-4.619,7.397c-1.191,0.312-2.324,0.368-3.458,0.368
		c-1.502,0-2.833-0.368-3.854-0.652l1.077-4.279c0.737,0.341,1.559,0.511,2.381,0.511c2.72,0,3.061-2.835,3.485-4.847l2.324-10.855
		h5.356L157.062,21.416L157.062,21.416z"/>
	<polygon fill="#999999" points="161.995,9.462 175.91,9.462 175.145,13.203 166.444,13.203 165.538,17.284 173.784,17.284 
		172.962,21.025 164.744,21.025 163.78,25.503 172.82,25.503 172.056,29.244 157.743,29.244 161.995,9.462 	"/>
	<path fill="#999999" d="M192.796,14.161c-1.671-0.963-3.258-1.19-4.931-1.19c-5.3,0-7.425,3.741-7.425,7.482
		c0,3.515,2.238,5.158,5.413,5.158c1.898,0,3.628-0.396,5.017-1.105l-0.566,4.252c-1.276,0.425-3.487,0.766-5.272,0.766
		c-6.377,0-10.033-3.771-10.033-9.212c0-6.575,4.62-11.251,12.046-11.251c3.798,0,5.922,0.652,6.999,1.049L192.796,14.161
		L192.796,14.161z"/>
	<polygon fill="#999999" points="199.777,13.373 194.846,13.373 195.695,9.462 210.914,9.462 210.064,13.373 205.134,13.373 
		201.761,29.244 196.404,29.244 199.777,13.373 	"/>
</g>
</svg>
