<svg xmlns="http://www.w3.org/2000/svg" viewBox="0 0 340 90"><path d="M0 0h340v90H0z" fill="#fff"/><path d="M271.74 26.32a49.33 49.33 0 0 0-6.46 1.55 47.11 47.11 0 0 0-9.48 5c-1.57 1-2.65 3.39-3.62 5-1.84 3-3.31 8.58-.84 12.36.39.58 1.21 1.13 1.6 1.71a12.57 12.57 0 0 0 3.44 3.44c.87.52 1.78.89 2.68 1.44s1.44 1.52 2.31 1.81a15.55 15.55 0 0 1 2.15.68c.37.13.68.58 1.08.68 1 .32 2.26.63 3.6 1 2 .5 3.81 1.15 6.43.05a6.45 6.45 0 0 0 2.26-1.52 14.39 14.39 0 0 0 1-3 27.16 27.16 0 0 0 1.13-3 3.65 3.65 0 0 0-1-2.83 1.19 1.19 0 0 0-1.31-.58c-.95.21-2 1.29-2.7 1.79a9.65 9.65 0 0 1-2.14 1.1c-4.15 1.1-14.59-4.51-15.17-6.9-1.26-5.09 4.91-10.79 7.69-12.63a8.07 8.07 0 0 1 1.26-.92 14.24 14.24 0 0 1 1.47-.21c.58-.16 1.23-.5 1.65-.63a2.18 2.18 0 0 1 2.54 2c.13 2-.92 4.59-.26 5.38.45.55 1.92.71 2.68.92 2.34.68 2.57 1.26 4.17-2.34a11.63 11.63 0 0 0 .21-6.3c-.66-2.44-1.63-4.57-3.31-4.94a4.26 4.26 0 0 0-1.84-.32 3 3 0 0 0-1.23.16m-47.53.57c-2.47.6-4.86.79-7.38 1.86a34 34 0 0 1-5.3 1.31c-2.5.63-4.86.32-6.72 1.44-.81.5-1.55 4.59-2.36 5.54a13.78 13.78 0 0 0-2.91 5.28c-.18.34-1-.18-3.54 7.22-1.68 5-.79 12.29 8 14.12 2.76.6 7.46.71 9.66-.73 1.84-1.21 3.49-2.76 2.42-6-.21-.66-.19-1.44-.71-1.73-1.44-.76-3.6.68-4.59 1.18a8.12 8.12 0 0 1-7.77-.03c-2.28-1.08-3.49-2.73-1-4.3a6.14 6.14 0 0 1 1.18-.81c1.29-.42 3.07 0 4.57-.39a6.63 6.63 0 0 1 3.23-.5c1.26.13 2.6-.52 4.36-.66 2.21-.13 2.34-.34 2.73-.55 1.23-.66 1 .39 2.86-.53.81-.42.66-2.89.24-3.65s-.42-2.6-1.26-2.86-1.1.42-1.47.63a15.25 15.25 0 0 1-5.44 1.51c-2.44.39-4.28.89-7.09.29 2.26.55-2.26-.1-1.34-1.68a20.58 20.58 0 0 1 2.6-3.6c1.86-2.1 19.69-4.36 20.55-5.22.66-.47.18-2.34.05-2.94l-.45-2.13c-.08-.29-1-.81-1-1 0-1 0-1.6-2.21-1m-89.87-.04a15.78 15.78 0 0 0-4.24 1.18c-2.21.52-3.73.32-6 .87-1.1.29-2.26 1-3.26 1.29a8.56 8.56 0 0 0-1.84.47c-1 .71-.45 4.15-.79 5.54-.26 1.23-1.76 2.62-2.2 3.88-2 5.7-4.51 15.59.66 19.95a10.76 10.76 0 0 0 2.78 1.26c3.57 1.42 4.38.71 7.56 1a2.84 2.84 0 0 0 1.21.05 22.67 22.67 0 0 0 2.7-1.42c1.84-.87 2.1-4.09 1.34-5.75a9.55 9.55 0 0 0-.79-1.26 2 2 0 0 0-.79-1c-1.65 0-1.31 1.26-2.42 1.55-2.65.71-6.72.52-8.5-.29-.87-.39-2-1-1.63-2.44.89-3.39 8.27-3.07 12-4 .92-.24 2.23-.79 3.39-1.16 1.65-.52 3.07-.71 3.23-1 .47-.58-1.1-5.83-2.34-6.17a4.39 4.39 0 0 0-1.15.1c-.79.21-13.54 5.15-10.79.16a15.66 15.66 0 0 1 1.34-2.65c1.86-2.18 3.7-2.47 5.85-2.78 1.44-.24 3-.73 4.8-.87 1.49-.11 3.31-.6 4.8-.66.84-.05 1.58.05 1.71 0 .31-.24 0-.58.29-1.18.68-1.63-.89-2.07-1.68-3.26a6.45 6.45 0 0 1-.45-1.1c-.37-.81-3.54-.52-4.86-.34m181.64-3.62c.71-.18-.89.18-2.83.73a13.43 13.43 0 0 1-3.62.63c-.37-.05-.76.58-1.49.42-.32-.05-2.44.42-4.7.68a42.31 42.31 0 0 0-7.77 1.47c-.68.18-1.89 0-2.57.18-2.47.6-4.17.42-6 1.6-2.31 1.5-2 4-2.13 6.59 0 .81-1.68 3.49-2.15 5-.92 2.94-3.12 10.39-1.81 14.28a5.53 5.53 0 0 0 .68.87 8.13 8.13 0 0 0 4 3.36c1.42.66 5.25 2 8 1.55.13 0 .89-.42 1-.45.79-.21 1.44.1 2.26-.18 1.13-.42 3.78-.55 5-1.34 1.73-1.13 1.86-5.85-.42-6.48-.76-.18-1.36.26-3.1.55-3.6.55-6.17 1.94-10.5.26a2 2 0 0 1-1.34-2.34c.79-3.1 10.84-1 13.62-1.55 2.07-.45 3.33-.08 4.38-1.39a4.71 4.71 0 0 0 .6-1.94c.21-.95 1.13-.42.18-2.57-.29-.68-2-3.26-2.49-3.41-1.31-.39-2.23.6-2.91.79a27.7 27.7 0 0 1-2.89 0c-1.65.1-3.36.47-3.78.13s-2.28.55-3.31 0c-1.37-.71.08-3 .32-3.78 1.26-4 5.09-3.12 9.16-4.25 5.3-1.52 7.11-.18 10.32-1 1-.26 2.2 0 3.23-.29a24.21 24.21 0 0 1 4.67-.52 3.87 3.87 0 0 0 2.21-.21c.42-.24.34-1.31.29-1.73a7.91 7.91 0 0 0-1.79-4.41c-.58-.87-.55-1.71-2.36-1.26m-170.84 2.03c-3.15.84-.84 7.59-1.23 10.34-.45 3.31-.29 6.46-.95 9.63l-2.6 11.71c-.89 3.81.92 4.67 3.67 5.25a1.57 1.57 0 0 0 1.52 0c1.26-1.13.71-5.36 1-7.06.42-1.86 1.29-7.53 2.39-8.66.6-.6 1.23-1.21 2-.42 2 1.84 3.33 4.49 4.65 7 .6 1.15 2.07 1.81 2.41 3.1.52 2 .76 6.75 2.15 7.59.55.32 1.13.05 1.92.21a4.22 4.22 0 0 0 2.1.24c.89-.32 1.47-3.1 1.68-4 .74-3.41-.58-6.33 0-9.45 0-.13.08-1 .11-1.15.24-1-.26-2.2-.05-3.23.5-2.34.16-6.25.55-9.37.24-2-.32-3.49.08-5.36a9.86 9.86 0 0 0-.58-5.22c-.6-1.42-4-1.18-4.41.42-.26 1.08.47 1.73.21 2.89a57.05 57.05 0 0 0-.5 6.35c-.24 5-.55 10.84-2.57 10a5.15 5.15 0 0 1-2.23-2.63 18.06 18.06 0 0 0-1.65-2c-1.57-2.36-3.52-3.73-4.33-7-1-4.12 1.68-7.64-2.52-8.87a6.72 6.72 0 0 0-2.89-.21M183 31.15a22.44 22.44 0 0 1 4.83-.16c1.73 0 3.7.05 4.88 1.29 2.6 2.78-5.3 6.59-8.37 6.8-1.34.1-1.08-.66-1-1.55a23.86 23.86 0 0 0-.55-2.76 2.83 2.83 0 0 1-.05-1.81c0-.55-.55-1.63.26-1.81m-.16-6.8c-2.15.37-4.12 0-6.38.52-2.76.66-5.75 1.34-7.9 2.76-.6.37-.68 2-.68 2-.34 6.59 6.64.71 9.16 2.21a3.35 3.35 0 0 1 .6.6 2.6 2.6 0 0 1 .18.52 12.56 12.56 0 0 1-.16 6.12c-.26.66-.6-.05-.76.71a8.33 8.33 0 0 0-3.15.94 6.51 6.51 0 0 0-1.08 2.89c-.42 3.41 2.18 4 2.65 4.33s.66-.55 2-.21a19.68 19.68 0 0 0 .08 2.26 15.64 15.64 0 0 1-.37 4.3c-.37 1.73-1.18 6.48-.47 8 .29.63 1 .29 2.21 1.1a2.63 2.63 0 0 0 2.36.5c.81-.29.89-1.68 1.1-2.65.34-1.65-.18-4.25.1-6.27.32-2.2.87-7.53.95-8.11.31-.39 2.36-.71 3.83-1.1.5-.13 1.08-.63 1.47-.76.84-.29 1.52-.26 2.23-.58a14.29 14.29 0 0 0 2.65-1.81c2.18-1.73 4.38-2.81 4.75-3.36s.5-1.39 1.08-2.15c2-2.47-.39-7.11-2.39-9.53a2.18 2.18 0 0 0-.95-.95 5.69 5.69 0 0 1-1.39-.37 8.47 8.47 0 0 0-1.29-.95c-.66-.21-1.92-.16-2.6-.32-1.42-.29-6.06-.92-7.8-.66m55.98 7.4c.92-.24 1.47.42 2 1.44.42.79.18 6.9.21 8.58a56.62 56.62 0 0 1-7.48.24c-.05-.63.89-2.23 1.92-4.33.55-1.1.76-2.28 1.29-3.31a7.16 7.16 0 0 1 2-2.62m-.16-8.82c-.79.26-2.2 2-2.65 2.84s-1.37 1.29-1.73 2l-2.55 4.41c-1.73 3.25-2.62 6.88-4.54 10.05-.66 1.1-2.23 1.18-2.57 2.68-.47 2-.47 4.07-1.21 5.83-1 2.55-2.65 3.49-3.31 6.85-.55 2.78.95 3.91 2.62 4.41 1.47.45 2.18-1.39 2.49-2.13.79-1.94 2.57-7.46 4.33-8.06 2.15-.74 3.44-.39 5.91-1.37.74-.26 3.89-.08 5.75-.37 0 1.29-.26 7.48-.24 9.16.05 3.18.95 6.09 2.15 6.51a8.9 8.9 0 0 0 2.6.13c.13-.21.1-.34.24-.52a.87.87 0 0 0 .26-.18 2.1 2.1 0 0 0 .18-.68 16.17 16.17 0 0 0 .26-7.11c-.68-2.94-.08-6.19-.1-8.82 1.71-.63 2-1.08 2.2-3.12.05-.39.13-1.65.13-1.71v-.66a2.51 2.51 0 0 0-.05-.79c-.26-.58-1.1-.24-2-.21a23.34 23.34 0 0 0-.29-5.64c-.34-1.86 0-2.81-.5-4.41a4.75 4.75 0 0 0-.42-1.6 10 10 0 0 1-.34-1.44c-.24-.87-1.15-1.52-1.49-2.26-.81-1.84-1.55-5-5.09-3.75m-130.52 1.79l-5.09 1.44c-1.08.26-2 .26-3.18.58-.55.16-1.76.84-2.31 1-.95.24-1.16.1-2.21.39l-1.49.55c-1.13.32-2.31.42-3.07 1.1-1.71 1.57-1.71 4.33-.55 6.67.52 1 2 .71 1.71 2.91-.55 3.62-2.18 5-2.62 6.9a21.52 21.52 0 0 0-.45 3.86c-.16 3.33.29 6.43 2.34 8.92.89 1.1 6.43 3.15 8.24 3.54 2.52.52 4.33-.42 6.12-.74a5.36 5.36 0 0 0 1.31-1.73c.81-2.65-.79-6.4-1.36-6.61-1.71 0-2 1.1-3.31 1.42a9 9 0 0 1-7.67-2.15 2.42 2.42 0 0 1-.29-2.31 4.36 4.36 0 0 1 1.73-1.8c1-.34 1.65-.05 2.7-.32l4.36-1.13c1.21-.29 2.49.42 3.94.05s4-.68 4.49-1.13a4.76 4.76 0 0 0 0-2.65c-.37-1.47-.71-3.33-2.07-3.73-1.89-.58-4.83 1-7.93 1.57-2.89.47-5.12.08-4.33-2.6a5 5 0 0 1 1.08-2.52c1.29-1.29 3.7-1.76 6.22-2.28.89-.18 1.89-.58 2.76-.74 1.16-.21 2.21-.21 3.18-.47l2.7-.68a10.18 10.18 0 0 0 2.65-.58c.79-.68-1.55-5.2-1.84-5.7-.05-.1-.05-.08-.1-.18-.45-1.26-3.73-1.34-5.62-.87m-35.03 5.46c2.23-.79 4.62 2.28 5 3.23a5.76 5.76 0 0 1-.16 3.07c-.31 1.39-2.07 2.73-3.18 3.47-.68.45-1.08 1.68-2 1.86-4 .89-1.15-6-1-6.8.24-1.1-.39-2.44-.05-3.49a5.14 5.14 0 0 1 1.37-1.34m-1.89-6.35c-1.52.26-5.49 1.08-5.75 1.84-.16.39-.24 1.34-.47 2.31-.26 1.13-.84 1.68-.55 2.7.74 2.57 2.73 2.36 2 4.8-.45 1.57-1.34 6.22-2.86 7-.73.4-1.81.18-2.18.47a9 9 0 0 0 .18 5.36c.26.5 1.18 1 1.34 1.44a7.64 7.64 0 0 1-.08 2.94c-1.13 4.62-1.71 9.79 2.52 10.76a2.1 2.1 0 0 0 1.47 0c2.68-3.86-.81-6.67.87-10.68.81-1.92 1.31-2.13 2.65-1.5 1.94.92 4.88 3.54 5.75 4.15 3.26 2.26 4.72 7 8.61 5.85 1-.31 3.54-2.94 3.1-4.75a11.62 11.62 0 0 0-.55-1.39c-.87-1.71-3.12-2.23-5-3.49-.66-.47-1.26-1.23-1.92-1.71A9 9 0 0 1 78.65 48a.89.89 0 0 1 0-.87 10.31 10.31 0 0 1 1.29-1.37 18.35 18.35 0 0 0 3.44-6.51c1.47-6.19-1.76-12.31-4.88-14.23a11.12 11.12 0 0 0-2.57-1 10.78 10.78 0 0 0-4.62-.21M54 71.1a2 2 0 0 0 .34-.34c.08-.1.16-.26.24-.37a1.27 1.27 0 0 0 .26-.79c.92-3.12.1-7 1.13-11.05a54.38 54.38 0 0 1 1.73-6.85 15 15 0 0 0 1.47-2.84c.79-3.36-1.76-7.46-2.39-7.64-.68-.87-7.11.42-11.26 1.57-2.55.73-2.6-.37-7.3.76-2.26.52-4 1-4.49 3.31-.29 1.29.47 5.07 1 5.22 2.13.66 3.18-.66 6-1.15 1.76-.29 2.78-.08 4.49-.5.84-.21 2.39-1 3.67-.6a1.45 1.45 0 0 1 .68 1.92 4.52 4.52 0 0 1-1.37 1.95 14.85 14.85 0 0 1-3.47 2c-.79.21-1.6-.08-2.36.13-.39.1-1.34.66-1.84.73a25.83 25.83 0 0 1-7.17-.13c-.68-.16-1.73-.66-2.34-.81-2.28-.52-5.3-1.65-5.88-3.78-1.14-4.18 6.68-12.37 8.67-14.42a40.86 40.86 0 0 1 6.83-5.91c1-.66 2-2.07 3.28-2.42a2 2 0 0 1 1.26.1c2.23.71 3.28 4.91 3.81 5.07a3.06 3.06 0 0 0 3.57-1.55 7.75 7.75 0 0 0-.08-4.57 10 10 0 0 0-4.09-4.57 11.17 11.17 0 0 0-1.68-.42c-.81-.26-2-1-3.41-.45-3.18 1.18-4.88 3.1-7.19 4.94-.87.68-1.79 1.29-2.62 2A46.63 46.63 0 0 0 25 39.23c-1.23 2-2.86 3.12-3.57 5.83-.13.5-.76 1.13-.89 1.68s.05 1-.1 1.68a9.56 9.56 0 0 0-.25 4.58c.1.34.5.58.6.92.21.63.26 1.18.47 1.79a5.86 5.86 0 0 0 .76.95 7.81 7.81 0 0 0 2.73 3 24.27 24.27 0 0 0 6.62 2.26c.53.08 1.13-.19 1.63-.09.16.05.55.5.71.52a13.43 13.43 0 0 0 3.07-.05c5.3-.1 8.29-1 11.58-2.91.31 2-.08 5.07-.13 7.17 0 1.21.13 2 .13 3.26.18.76 2.39.87 3 1.34A2.85 2.85 0 0 0 54 71.1" fill="#73be1e" fill-rule="evenodd"/></svg>
